# xmcd CD database file
# Generated: Die Jun 25 11:12:46 2002 by KSCD
# 
# Track frame offsets:
#       150
#       9831
#       20684
#       32376
#       49873
#       64461
#       81149
#       101794
#       113882
#       128517
#       141618
#       149720
#       161150
#       175162
#
# Disc length: 2535 seconds
#
# Revision: 2
# Processed by: cddbd v1.4PL0 Copyright (c) Steve Scherf et al.
# Submitted via: Kscd 1.3.3
#
DISCID=c609e50e
DTITLE=Johnny Cash - American III: Solitary Man (2000)
DYEAR=1900
DGENRE=
TTITLE0=I Won't Back Down
TTITLE1=Solitary Man
TTITLE2=That Lucky Old Sun
TTITLE3=One
TTITLE4=Nobody
TTITLE5=I See A Darkness
TTITLE6=The Mercy Seat
TTITLE7=Would You Lay With Me
TTITLE8=Field Of Diamonds
TTITLE9=Before My Time
TTITLE10=Country Trash
TTITLE11=Mary Of The Wild Moor
TTITLE12=I'm Leavin' Now
TTITLE13=Wayfaring Stranger
EXTD=
EXTT0=
EXTT1=
EXTT2=
EXTT3=
EXTT4=
EXTT5=
EXTT6=
EXTT7=
EXTT8=
EXTT9=
EXTT10=
EXTT11=
EXTT12=
EXTT13=
PLAYORDER=
